<?xml version="1.0" encoding="UTF-8" standalone="no"?>
<!-- Created with Inkscape (http://www.inkscape.org/) -->

<svg
   width="1920"
   height="1080"
   viewBox="0 0 1920 1080"
   version="1.1"
   id="svg5"
   inkscape:version="1.2 (dc2aedaf03, 2022-05-15)"
   sodipodi:docname="title.svg"
   xmlns:inkscape="http://www.inkscape.org/namespaces/inkscape"
   xmlns:sodipodi="http://sodipodi.sourceforge.net/DTD/sodipodi-0.dtd"
   xmlns="http://www.w3.org/2000/svg"
   xmlns:svg="http://www.w3.org/2000/svg">
  <sodipodi:namedview
     id="namedview7"
     pagecolor="#505050"
     bordercolor="#eeeeee"
     borderopacity="1"
     inkscape:showpageshadow="0"
     inkscape:pageopacity="0"
     inkscape:pagecheckerboard="0"
     inkscape:deskcolor="#505050"
     inkscape:document-units="px"
     showgrid="false"
     inkscape:zoom="0.52724989"
     inkscape:cx="1033.6655"
     inkscape:cy="584.16324"
     inkscape:window-width="1920"
     inkscape:window-height="1017"
     inkscape:window-x="1912"
     inkscape:window-y="-8"
     inkscape:window-maximized="1"
     inkscape:current-layer="layer1" />
  <defs
     id="defs2">
    <inkscape:path-effect
       effect="bspline"
       id="path-effect8712"
       is_visible="true"
       lpeversion="1"
       weight="33.333333"
       steps="2"
       helper_size="0"
       apply_no_weight="true"
       apply_with_weight="true"
       only_selected="false" />
    <inkscape:path-effect
       effect="bspline"
       id="path-effect4029"
       is_visible="true"
       lpeversion="1"
       weight="33.333333"
       steps="2"
       helper_size="0"
       apply_no_weight="true"
       apply_with_weight="true"
       only_selected="false" />
    <inkscape:path-effect
       effect="bspline"
       id="path-effect3971"
       is_visible="true"
       lpeversion="1"
       weight="33.333333"
       steps="2"
       helper_size="0"
       apply_no_weight="true"
       apply_with_weight="true"
       only_selected="false" />
    <inkscape:path-effect
       effect="bspline"
       id="path-effect3967"
       is_visible="true"
       lpeversion="1"
       weight="33.333333"
       steps="2"
       helper_size="0"
       apply_no_weight="true"
       apply_with_weight="true"
       only_selected="false" />
    <clipPath
       clipPathUnits="userSpaceOnUse"
       id="clipPath15157">
      <g
         aria-label="AllOnPen"
         id="g15175"
         style="font-size:229.993px;font-family:Paradise;-inkscape-font-specification:'Paradise, Normal';fill-rule:evenodd;stroke-width:4.52742">
        <path
           d="m 694.22935,592.27183 c -1.37996,-6.6698 -2.98991,-13.1096 -4.36987,-19.7794 -2.98991,-13.33959 -5.97982,-26.90918 -8.96973,-40.24878 -2.98991,-13.1096 -5.97982,-26.2192 -8.73973,-39.55879 -1.60995,-6.4398 -2.98991,-13.1096 -4.59986,-19.54941 -1.60995,-6.89979 -2.75992,-14.02957 -5.28984,-20.46937 -2.06994,-5.05985 -6.4398,-8.73974 -12.18963,-8.04976 -5.05985,0.91997 -10.11969,5.28984 -9.65971,11.03967 0,0.91997 0.23,2.06993 0.23,2.98991 -9.8897,23.22929 -18.85943,47.14856 -26.90918,71.06783 -4.13988,13.1096 -8.27975,26.4492 -11.72965,39.5588 -3.90988,13.56958 -7.81976,27.36916 -10.11969,41.16874 -0.91997,4.13988 5.05985,5.74983 6.20981,1.60995 3.67989,-12.8796 6.43981,-25.9892 9.8897,-39.09881 1.14997,-4.13987 2.29993,-8.50974 3.67989,-12.8796 17.01948,0 33.80897,0 50.82845,0 1.14997,5.74982 2.52993,11.26965 3.67989,17.01948 1.60995,6.6698 3.2199,13.56959 4.59986,20.46938 1.60995,6.89979 3.2199,14.71955 7.12978,20.69937 5.51983,9.19971 17.70946,4.36986 18.62944,-5.05985 0.91997,-6.89979 -0.91998,-14.25957 -2.29993,-20.92936 z m -74.51774,-58.87821 c 6.89979,-20.92936 14.48956,-41.39874 22.76931,-61.86812 1.83995,8.73974 4.13988,17.24948 5.97982,25.75922 2.98991,13.33959 5.97982,26.90918 8.96973,40.24877 1.37995,5.97982 2.52992,11.72965 3.90988,17.47947 -16.09951,0 -32.19902,0 -48.29853,0 2.29993,-7.12978 4.36986,-14.25956 6.66979,-21.61934 z"
           id="path15159" />
        <path
           d="m 771.50686,576.17232 c -3.44989,7.12978 -6.89979,14.25956 -12.41962,19.77939 -5.28984,5.05985 -13.33959,9.19972 -20.23938,5.28984 -5.28984,-2.98991 -7.35978,-10.34968 -8.27975,-15.86951 -1.14997,-8.04976 0,-16.5595 0,-24.60925 0.22999,-17.70946 0,-35.18893 -0.22999,-52.6684 -0.23,-8.73973 -0.23,-17.47947 -0.45999,-26.2192 0,-9.19972 0.91997,-20.92936 -3.90988,-28.97912 -3.4499,-5.97982 -12.64962,-6.4398 -16.09951,0 -5.05985,9.19972 -3.2199,22.53931 -2.98991,32.889 0,10.80967 0.22999,21.61934 0.45999,32.42901 0.45998,20.69937 0.45998,41.62873 2.52992,62.09811 1.14996,9.8897 3.2199,19.54941 11.26966,26.2192 6.20981,5.28984 13.79958,7.35978 21.84933,5.97982 17.93945,-3.2199 27.13917,-17.24947 34.26896,-32.889 1.60995,-3.90988 -3.90988,-7.12978 -5.74983,-3.44989 z"
           id="path15161" />
        <path
           d="m 830.61506,576.17232 c -3.44989,7.12978 -6.89979,14.25956 -12.41962,19.77939 -5.28984,5.05985 -13.33959,9.19972 -20.23938,5.28984 -5.28984,-2.98991 -7.35978,-10.34968 -8.27975,-15.86951 -1.14997,-8.04976 0,-16.5595 0,-24.60925 0.22999,-17.70946 0,-35.18893 -0.22999,-52.6684 -0.23,-8.73973 -0.23,-17.47947 -0.45999,-26.2192 0,-9.19972 0.91997,-20.92936 -3.90988,-28.97912 -3.4499,-5.97982 -12.64962,-6.4398 -16.09951,0 -5.05985,9.19972 -3.2199,22.53931 -2.98991,32.889 0,10.80967 0.22999,21.61934 0.45999,32.42901 0.45998,20.69937 0.45998,41.62873 2.52992,62.09811 1.14996,9.8897 3.2199,19.54941 11.26966,26.2192 6.20981,5.28984 13.79958,7.35978 21.84933,5.97982 17.93945,-3.2199 27.13917,-17.24947 34.26896,-32.889 1.60995,-3.90988 -3.90988,-7.12978 -5.74983,-3.44989 z"
           id="path15163" />
        <path
           d="m 880.75352,610.44127 c 13.1096,7.12979 28.28914,3.67989 37.94884,-7.35977 10.1197,-11.26966 15.40954,-27.13918 18.85943,-41.62873 3.67989,-15.40954 4.59986,-31.27905 2.75992,-46.91858 -1.60995,-15.17953 -5.28984,-31.04905 -12.41963,-44.61864 -6.4398,-11.72964 -18.16944,-22.53931 -32.659,-21.15935 -7.12978,0.68998 -14.02957,5.28984 -17.47947,11.49965 -4.59986,-4.82986 -14.02957,-5.97982 -17.01948,1.37995 -7.35978,17.24948 -9.65971,36.56889 -10.80967,55.42832 -0.91997,17.93945 0,36.56888 4.82985,54.04835 4.13988,15.40953 11.26966,31.27905 25.98921,39.3288 z m -5.97982,-97.28703 c 0.91997,-11.03967 3.2199,-21.84934 4.36987,-32.889 7.81976,9.8897 23.91927,8.73973 30.35908,-2.75992 2.06993,-3.67989 -3.67989,-6.89979 -5.74983,-3.44989 -2.98991,5.28984 -9.42971,8.27974 -15.17954,5.51983 -5.51983,-2.75992 -8.04975,-9.42971 -5.51983,-14.94955 5.51983,-12.18963 20.92936,-10.34968 29.6691,-3.2199 9.6597,7.81976 14.02957,20.69937 17.24947,32.19902 3.2199,11.95964 5.05985,24.60925 5.05985,37.25887 0,12.18963 -1.60995,24.60925 -5.28984,36.33889 -3.67989,11.49965 -8.96973,25.06924 -18.39944,33.11899 -4.59986,4.13988 -10.57968,6.89979 -16.78949,5.51983 -5.51983,-1.37995 -10.80967,-5.74982 -13.1096,-10.80967 -2.29993,-5.05984 -2.98991,-11.49965 -3.90988,-16.78949 -1.37996,-6.4398 -2.06994,-12.8796 -2.98991,-19.31941 -1.60995,-15.17954 -1.14997,-30.58907 0.22999,-45.7686 z"
           id="path15165" />
        <path
           d="m 1042.8984,572.49243 c -1.1499,5.51983 -2.9899,10.57968 -5.7498,15.40953 -2.2999,4.13987 -5.5198,9.8897 -10.1197,11.26966 -2.5299,-4.13988 -2.5299,-8.50974 -2.9899,-14.02958 -0.46,-8.50974 -0.46,-17.01948 0,-25.52922 0.92,-16.55949 2.7599,-35.87891 -6.4398,-50.59846 -6.4398,-10.57968 -21.38934,-17.47947 -32.88899,-10.34968 -1.83994,1.14996 -3.44989,2.29993 -4.82985,3.90988 -5.05985,-8.96973 -21.84933,-6.89979 -21.61934,5.74982 0,17.24948 0,34.72895 0.22999,51.97842 0,8.73973 0.23,17.47947 0.23,26.2192 0,7.81976 -1.14997,20.00939 5.51983,25.52922 3.44989,2.98991 7.58977,2.98991 11.03966,0 6.6698,-5.51983 5.28984,-17.70946 5.51983,-25.52922 0,-8.73973 0,-17.47947 0.23,-26.2192 0,-15.86952 0,-31.73903 0.22999,-47.60855 0.45998,-1.14997 0.91997,-2.06994 1.60995,-2.98991 2.75992,-4.13987 7.12978,-7.12978 11.95964,-7.12978 5.28979,0.22999 6.43979,3.67989 6.89979,8.04975 1.8399,18.16945 -0.46,36.3389 -0.92,54.50834 -0.23,9.8897 0.23,20.23939 3.9099,29.6691 2.7599,7.35978 7.5898,16.78949 16.7895,15.63952 3.2199,-0.22999 7.1298,-2.29993 9.8897,-3.90988 3.2199,-2.29993 5.9798,-5.51983 8.0497,-8.50974 5.0599,-7.12978 8.2798,-15.17954 9.8897,-23.68928 0.69,-4.13987 -5.5198,-5.97982 -6.4398,-1.83994 z"
           id="path15167" />
        <path
           d="m 1067.5078,574.10238 c 0,6.4398 -0.2299,12.87961 0.23,19.31941 0.23,5.97982 0.69,14.48956 5.2899,18.62943 2.9899,2.98991 7.8197,2.98991 11.0396,0 4.3699,-4.13987 4.5999,-11.72964 5.2899,-17.70946 0.46,-6.20981 0,-12.8796 0.23,-19.31941 0,-5.97982 0,-11.95963 0,-17.93945 14.4895,7.35977 31.739,8.04975 46.9185,1.14996 16.7895,-7.35977 29.4392,-23.22929 33.349,-41.16874 4.1399,-18.85943 0.23,-42.31871 -14.0295,-56.34829 -13.1096,-12.41962 -33.349,-14.94954 -48.5286,-4.59986 -8.0497,5.74983 -13.5696,13.56959 -17.2494,22.07933 0,-5.05985 0,-10.34968 0,-15.63952 0,-14.94955 -23.2293,-14.94955 -22.9993,0 0,25.06923 0,50.13847 0.23,74.97771 0,12.18963 0,24.37926 0.2299,36.56889 z m 36.5689,-105.33679 c 9.6597,-11.03967 30.3591,-18.62944 39.7888,-3.67989 14.7196,23.45929 12.1897,58.41822 -10.3497,76.12768 -12.1896,9.42971 -29.6691,11.95964 -43.9286,5.97982 0,-3.2199 0.23,-6.4398 0.23,-9.65971 0,-11.95963 0,-23.91927 0,-35.8789 2.5299,-11.95964 6.2098,-23.68928 14.2595,-32.889 z"
           id="path15169" />
        <path
           d="m 1242.9927,569.73251 c -2.2999,12.87961 -6.8998,31.96903 -23.4593,32.19902 -8.0497,0.23 -14.9495,-6.4398 -18.1694,-13.33959 -2.9899,-6.6698 -3.2199,-14.94955 -3.4499,-22.30932 -0.23,-10.57968 0.6899,-22.76931 4.8298,-33.11899 7.5898,0.68998 15.1796,0.91997 22.7693,0.68998 8.0498,0 18.3995,-2.06994 21.1594,-10.80968 2.5299,-8.50974 -4.8299,-16.3295 -10.8097,-21.38934 -8.0497,-6.6698 -19.0894,-7.81977 -28.7491,-4.59986 -22.9993,7.81976 -31.0491,35.8789 -28.9791,57.72824 1.6099,20.23938 11.2696,45.7686 32.429,52.89839 9.8897,3.2199 20.2394,1.83994 28.2891,-4.59986 9.4297,-7.35978 13.5696,-18.62944 17.2495,-29.6691 2.5299,-8.27975 -11.2697,-11.95963 -13.1096,-3.67989 z m -34.7289,-46.68858 c 3.2199,-4.82985 8.5097,-8.73973 13.7995,-10.80967 5.9799,-2.06993 14.9496,-2.75991 17.4795,4.36987 4.3699,11.49965 -15.1795,10.57968 -21.3893,10.34969 -4.1399,0 -8.2798,-0.23 -12.1897,-0.45999 0.69,-1.14997 1.38,-2.52992 2.3,-3.4499 z"
           id="path15171" />
        <path
           d="m 1331.7702,572.49243 c -1.15,5.51983 -2.9899,10.57968 -5.7498,15.40953 -2.2999,4.13987 -5.5198,9.8897 -10.1197,11.26966 -2.5299,-4.13988 -2.5299,-8.50974 -2.9899,-14.02958 -0.46,-8.50974 -0.46,-17.01948 0,-25.52922 0.92,-16.55949 2.7599,-35.87891 -6.4398,-50.59846 -6.4398,-10.57968 -21.3894,-17.47947 -32.889,-10.34968 -1.84,1.14996 -3.4499,2.29993 -4.8299,3.90988 -5.0598,-8.96973 -21.8493,-6.89979 -21.6193,5.74982 0,17.24948 0,34.72895 0.23,51.97842 0,8.73973 0.23,17.47947 0.23,26.2192 0,7.81976 -1.15,20.00939 5.5198,25.52922 3.4499,2.98991 7.5898,2.98991 11.0397,0 6.6698,-5.51983 5.2898,-17.70946 5.5198,-25.52922 0,-8.73973 0,-17.47947 0.23,-26.2192 0,-15.86952 0,-31.73903 0.23,-47.60855 0.46,-1.14997 0.92,-2.06994 1.6099,-2.98991 2.76,-4.13987 7.1298,-7.12978 11.9597,-7.12978 5.2898,0.22999 6.4398,3.67989 6.8998,8.04975 1.8399,18.16945 -0.46,36.3389 -0.92,54.50834 -0.23,9.8897 0.23,20.23939 3.9099,29.6691 2.7599,7.35978 7.5897,16.78949 16.7895,15.63952 3.2199,-0.22999 7.1297,-2.29993 9.8897,-3.90988 3.2199,-2.29993 5.9798,-5.51983 8.0497,-8.50974 5.0599,-7.12978 8.2798,-15.17954 9.8897,-23.68928 0.69,-4.13987 -5.5198,-5.97982 -6.4398,-1.83994 z"
           id="path15173" />
      </g>
    </clipPath>
  </defs>
  <g
     inkscape:label="Layer 1"
     inkscape:groupmode="layer"
     id="layer1">
    <path
       style="fill:none;fill-opacity:1;fill-rule:evenodd;stroke:#ffffff;stroke-width:19.6;stroke-dasharray:none;stroke-opacity:1"
       d="m 592.69809,623.99255 c 0.71111,-4.42466 1.42234,-8.85014 3.3585,-17.70128 1.93616,-8.85114 5.09715,-22.12731 9.56219,-38.13039 4.46504,-16.00308 10.23386,-34.73197 16.12138,-51.68334 5.88752,-16.95137 11.89341,-32.12414 15.33107,-40.61955 3.43766,-8.49541 4.30693,-10.31297 5.09733,-11.53813 0.7904,-1.22515 1.50163,-1.85736 1.58075,-3.4373 0.0791,-1.57994 -0.47406,-4.10874 0.39511,-6.59866 0.86917,-2.48991 3.16089,-4.93968 4.86031,-5.13665 1.69941,-0.19697 2.80576,1.85767 3.51672,5.25579 0.71095,3.39812 1.02705,8.13961 2.25208,15.05457 1.22503,6.91495 3.3587,16.00281 8.96966,40.73848 5.61096,24.73567 14.69882,65.11736 20.03309,89.37854 5.33428,24.26118 6.91478,32.40074 -10.98463,21.85028 -17.89942,-10.55046 -55.27816,-39.78965 -70.76725,-53.77763 -15.48909,-13.98798 -9.08808,-12.72359 8.89065,-12.17052 17.97872,0.55307 47.534,0.39502 65.35396,-18.65032 17.81995,-19.04533 23.90487,-56.97725 28.76567,-75.54873 4.86081,-18.57148 8.49595,-17.78123 10.23392,-16.0818 1.73798,1.69944 1.57993,4.30726 1.97511,26.27705 0.39518,21.9698 1.34348,63.29979 2.56848,88.46985 1.22501,25.17005 2.72649,34.1789 6.71788,39.59182 3.9914,5.41293 10.47144,7.2305 16.4376,6.83507 5.96617,-0.39543 11.41888,-3.00325 15.56751,-6.48023 4.14862,-3.47699 6.99351,-7.82335 9.68045,-11.73522 2.68694,-3.91188 5.21573,-7.38897 6.51972,-10.11501 1.30398,-2.72604 1.383,-4.70166 1.71831,-36.20957 0.3353,-31.50791 0.92681,-92.54442 1.28244,-89.34378 0.35563,3.20064 0.47533,70.63939 1.1676,106.33524 0.69226,35.69585 1.95666,39.64709 4.80206,42.80789 2.8454,3.1608 7.27079,5.53154 12.36782,6.0448 5.09703,0.51325 10.86584,-0.83017 14.85632,-2.68721 3.99047,-1.85705 6.20317,-4.22779 9.2062,-7.54693 3.00303,-3.31914 6.79622,-7.58648 9.16694,-10.90539 2.37073,-3.3189 3.31903,-5.68965 4.18833,-7.90239 0.8693,-2.21275 1.65955,-4.2674 5.05778,-24.69597 3.39824,-20.42857 9.40413,-59.22976 14.89714,-78.19641 5.49302,-18.96664 10.47159,-18.09737 12.99991,-17.22763 2.52833,0.86974 2.60735,1.73901 1.18475,15.25269 -1.4226,13.51368 -4.34652,39.6709 -5.13666,58.40038 -0.79014,18.72948 0.55329,30.03004 2.29198,39.67138 1.73869,9.64134 3.87236,17.62285 7.38948,23.58923 3.51711,5.96639 8.41666,9.91763 13.55341,12.09046 5.13676,2.17283 10.51045,2.56795 15.0147,2.01461 4.50426,-0.55335 8.1394,-2.05482 12.12997,-5.6504 3.99058,-3.59558 8.33694,-9.28537 12.28826,-18.09668 3.95131,-8.81132 7.50743,-20.74406 9.6017,-31.92626 2.09428,-11.1822 2.72648,-21.61348 2.13389,-32.20303 -0.59259,-10.58954 -2.41017,-21.33692 -5.17596,-30.97819 -2.7658,-9.64127 -6.47996,-18.17595 -11.26082,-24.57733 -4.78085,-6.40138 -10.62869,-10.66872 -16.20021,-12.6053 -5.57152,-1.93659 -10.86618,-1.54147 -15.13409,0.23669 -4.26792,1.77815 -7.50794,4.93915 -9.44418,8.02159 -1.93623,3.08245 -2.56843,6.08539 -1.9357,8.85152 0.63273,2.76613 2.52932,5.29492 5.21643,7.5865 2.6871,2.29158 6.16419,4.34622 9.08802,5.2151 2.92384,0.86888 5.29459,0.55278 7.54657,-0.27704 2.25198,-0.82981 4.38565,-2.17324 5.68936,-3.59533 1.30371,-1.4221 1.77786,-2.92357 2.44963,-4.26725 0.67177,-1.34368 1.54104,-2.52906 12.13145,1.38302 10.59041,3.91207 30.89979,12.9209 40.975,18.13684 10.07522,5.21593 9.91717,6.63837 9.75916,32.66534 -0.15801,26.02698 -0.31606,76.6553 -0.27654,77.56412 0.0395,0.90882 0.27659,-47.90293 2.96381,-73.29775 2.68722,-25.39483 7.82384,-27.37045 11.41949,-28.87196 3.59565,-1.5015 5.6503,-2.52883 8.96982,-2.64716 3.31953,-0.11833 7.90288,0.6719 11.37998,2.88516 3.477,2.21325 5.8478,5.84841 7.2891,10.99193 1.4413,5.14352 1.9538,11.79503 1.5461,21.8867 -0.4076,10.09166 -1.7351,23.62245 -1.7146,32.98063 0.021,9.35819 1.3888,14.54245 2.547,19.11033 1.1583,4.56787 2.1066,8.51911 3.0552,11.20602 0.9486,2.6869 1.8969,4.10936 3.4381,5.0177 1.5412,0.90834 3.6748,1.30345 6.0452,0.55252 2.3704,-0.75093 4.9782,-2.64752 7.2698,-5.29473 2.2916,-2.64722 4.2672,-6.04529 6.1638,-9.83852 1.8967,-3.79322 3.7143,-7.98154 4.7417,-11.18192 1.0274,-3.20038 1.2644,-5.41307 3.4377,-14.02722 2.1732,-8.61414 6.2825,-23.62886 8.8114,-43.46459 2.5289,-19.83572 3.4772,-44.49147 6.9548,-57.61044 3.4776,-13.11896 9.4835,-14.69946 12.0909,-14.10631 2.6074,0.59314 1.8172,3.359 1.7055,41.1103 -0.1116,37.75131 0.4551,110.48326 0.6922,115.89668 0.2371,5.41341 0.1445,-56.4936 1.6396,-87.7249 1.4952,-31.23129 4.5771,-31.78445 8.2514,-35.22199 3.6744,-3.43753 7.9417,-9.75949 11.9722,-14.81733 4.0304,-5.05785 7.8236,-8.85104 11.6173,-11.1429 3.7937,-2.29186 7.5869,-3.08211 11.1432,-3.39811 3.5563,-0.31601 6.8754,-0.15795 10.5898,0.98823 3.7143,1.14618 7.8236,3.27985 11.6167,6.91538 3.7931,3.63553 7.2702,8.77215 9.6802,15.13385 2.4101,6.36171 3.7535,13.9481 3.8323,22.28533 0.079,8.33723 -1.1064,17.42509 -5.3344,26.67092 -4.228,9.24583 -11.4983,18.64979 -20.5465,24.02347 -9.0481,5.37368 -19.8745,6.7171 -29.081,6.24315 -9.2065,-0.47396 -16.7929,-2.76568 -20.9813,-4.14847 -4.1884,-1.3828 -4.9786,-1.85692 12.8027,8.1401 17.7813,9.99702 54.1327,30.46443 73.3355,26.63151 19.2028,-3.83293 21.2575,-31.96577 23.2338,-45.7957 1.9763,-13.82993 3.8729,-13.35578 9.0491,-12.88174 5.1763,0.47405 13.632,0.94819 19.9936,1.22477 6.3616,0.27657 10.6289,0.35559 14.1452,-0.67185 3.5163,-1.02744 6.2821,-3.16108 7.27,-5.76834 0.988,-2.60725 0.1977,-5.68924 -1.3035,-8.85033 -1.5013,-3.1611 -3.714,-6.40111 -7.5467,-8.57481 -3.8326,-2.1737 -9.2853,-3.28005 -15.8053,-2.8851 -6.52,0.39495 -14.1064,2.29155 -18.6904,6.79658 -4.5839,4.50504 -6.1644,11.61727 -7.6659,19.83615 -1.5015,8.21888 -2.924,17.54382 -3.1609,26.47402 -0.237,8.9302 0.7113,17.46488 2.7268,24.22173 2.0155,6.75684 5.0975,11.73542 8.5354,15.56803 3.4379,3.83261 7.231,6.51945 11.9727,8.2182 4.7416,1.69875 10.4314,2.40997 15.5281,0.78979 5.0968,-1.62019 9.6012,-5.57142 13.1572,-10.03624 3.5561,-4.46482 6.164,-9.44342 7.705,-13.98722 1.5411,-4.54379 2.0152,-8.65308 2.134,-11.06324 0.1188,-2.41015 -0.1182,-3.12139 1.5208,-18.78689 1.639,-15.66549 5.1543,-46.28312 5.8261,-43.7542 0.6717,2.52893 -1.5003,38.20475 -1.5069,63.43321 -0.01,25.22845 2.1518,40.00771 2.8234,28.43006 0.6717,-11.57765 -0.1433,-49.51151 2.2548,-69.98095 2.3982,-20.46944 8.0089,-23.47237 12.7506,-25.68514 4.7418,-2.21277 8.614,-3.63521 13.3164,-3.04211 4.7024,0.59311 10.2342,3.20096 12.8279,9.79202 2.5936,6.59106 2.2504,17.1643 2.0054,26.08768 -0.245,8.92339 -0.3918,16.19587 -0.8524,23.82996 -0.4606,7.63409 -1.235,15.62916 -0.5946,22.59048 0.6404,6.96132 2.695,12.88817 5.0662,16.76029 2.3712,3.87212 5.0581,5.68967 8.1002,5.57063 3.0421,-0.11904 6.4402,-2.1737 9.4825,-5.57163 3.0423,-3.39793 5.7291,-8.1394 7.6653,-12.64378 1.9361,-4.50437 3.1215,-8.77172 4.623,-14.34314 1.5016,-5.57141 3.3191,-12.44658 5.1369,-19.32257"
       id="path8710"
       sodipodi:nodetypes="ccccccccccccccccccccccccccccccccccccccccccccccccccccccccccccccccccccccccccccccccccccccccccccccccccccccccccccccccccccccccccccccccccccc"
       clip-path="url(#clipPath15157)" />
    <path
       style="fill:none;fill-opacity:1;fill-rule:evenodd;stroke:none;stroke-width:3779.52755906;stroke-dasharray:none;stroke-opacity:1"
       d="m 522.70257,457.9934 c 26.37597,-9.72334 52.75138,-19.44648 60.01529,-12.5727 7.26392,6.87379 -4.58242,30.34296 1.34121,30.62193 5.92364,0.27897 29.61634,-22.63142 53.30949,-45.54225"
       id="path3965" />
  </g>
</svg>
